<?xml version="1.0" ?><svg viewBox="0 0 64 64" xmlns="http://www.w3.org/2000/svg"><title/><g id="Satellite"><path d="M28.2058,27.139a.9967.9967,0,0,1-.707-.293L24.74,24.0872a1,1,0,0,1,1.414-1.4141l2.7588,2.7588a1,1,0,0,1-.707,1.7071Z" style="fill:#c6cbef"/><path d="M62.7088,48.2212l-5.5,5.51-.71.7-.7.71-5.51,5.5a1.0018,1.0018,0,0,1-1.41,0l-4.35-4.35-.71-.71-.7-.7-3.65-3.65-.71-.71-.7-.7-4.35-4.35a1.0078,1.0078,0,0,1,0-1.42l5.5-5.5.7-.71.71-.7,5.5-5.5a1.0145,1.0145,0,0,1,1.41,0l9.41,9.41.71.7,5.06,5.06A.9959.9959,0,0,1,62.7088,48.2212Z" style="fill:#949bdd"/><path d="M40.62,39.553a.9968.9968,0,0,1-.7071-.2929L37.154,36.5013a1,1,0,0,1,1.4141-1.4141l2.7588,2.7588a1,1,0,0,1-.707,1.707Z" style="fill:#c6cbef"/><polygon points="58.359 42.461 57.649 41.751 56.939 41.051 50.739 47.261 47.089 43.611 53.299 37.411 51.879 35.991 45.679 42.201 40.619 37.141 39.909 37.841 39.209 38.551 44.269 43.611 38.059 49.821 38.759 50.521 39.469 51.231 45.679 45.021 49.329 48.671 43.119 54.881 43.819 55.581 44.529 56.291 50.739 50.081 55.799 55.141 56.499 54.431 57.209 53.731 52.149 48.671 58.359 42.461" style="fill:#d6daf2"/><path d="M7.5163,57.4837a1,1,0,0,1-.707-1.707L12.3259,50.26a1,1,0,0,1,1.4141,1.414L8.2234,57.1907A.9969.9969,0,0,1,7.5163,57.4837Z" style="fill:#949bdd"/><path d="M8.074,58.65a1,1,0,0,1-.1094-1.9941L18.44,55.49a1,1,0,0,1,.2207,1.9883L8.1853,58.6438A1.0374,1.0374,0,0,1,8.074,58.65Z" style="fill:#949bdd"/><path d="M6.3513,56.9251a1.064,1.064,0,0,1-.1113-.0059,1.001,1.001,0,0,1-.8838-1.1045l1.166-10.4755a1.0118,1.0118,0,0,1,1.1045-.8838A1.0012,1.0012,0,0,1,8.5105,45.56L7.3445,56.0354A1.001,1.001,0,0,1,6.3513,56.9251Z" style="fill:#949bdd"/><path d="M43.3786,21.6214a1,1,0,0,1-.707-1.707l3.62-3.62a1,1,0,1,1,1.4141,1.4141l-3.62,3.62A.9969.9969,0,0,1,43.3786,21.6214Z" style="fill:#ff847c"/><path d="M46.154,21.9837,42.0163,17.846a1,1,0,0,0-1.1543-.1875l-5.5175,2.7588a1,1,0,0,0-.26,1.6015l6.8965,6.8965a1,1,0,0,0,1.6015-.26l2.7588-5.5176A1,1,0,0,0,46.154,21.9837Z" style="fill:#e84a5f"/><path d="M30.2917,39.2249l-5.5166-5.5166a1,1,0,0,0-1.414,0l-3.1036,3.1035a1,1,0,0,0,.1993,1.5684A14.8291,14.8291,0,0,1,25.62,43.5433a1,1,0,0,0,.7353.4843,1.0871,1.0871,0,0,0,.126.0078,1,1,0,0,0,.707-.2929l3.1035-3.1035A1,1,0,0,0,30.2917,39.2249Z" style="fill:#c6cbef"/><path d="M44.7751,28.88,35.12,19.2249a1,1,0,0,0-1.4141,0L21.2917,31.639a1,1,0,0,0,0,1.414l9.6553,9.6553a1,1,0,0,0,1.4141,0l12.414-12.4141A1,1,0,0,0,44.7751,28.88Z" style="fill:#d6daf2"/><path d="M27.3425,42.5276A16.6,16.6,0,0,0,1.2917,39.2249a1,1,0,0,0,0,1.4141L23.3611,62.7083a.9995.9995,0,0,0,1.414,0A16.605,16.605,0,0,0,27.3425,42.5276Z" style="fill:#d6daf2"/><path d="M8.2234,55.7767a3.02,3.02,0,0,0-4.1729,0,2.9507,2.9507,0,1,0,4.1729,0Z" style="fill:#e84a5f"/><path d="M32.6587,17.1712a.9993.9993,0,0,1-.3.71l-5.5,5.5-.7.71-.71.71-5.5,5.49a.9921.9921,0,0,1-.71.3,1.0087,1.0087,0,0,1-.71-.3l-4.35-4.35-.7-.7-.71-.71-3.64-3.64-.71-.71-.71-.71-4.35-4.35a.996.996,0,0,1,0-1.41l5.5-5.5.71-.71.71-.7,5.5-5.51a.9959.9959,0,0,1,1.41,0l4.35,4.35.71.71.7.71,3.65,3.64.7.71,5.06,5.06A.9765.9765,0,0,1,32.6587,17.1712Z" style="fill:#949bdd"/><polygon points="28.009 12.121 27.299 11.411 26.599 10.701 20.389 16.911 16.749 13.271 22.949 7.061 22.249 6.351 21.539 5.641 15.329 11.851 10.279 6.801 9.569 7.501 8.859 8.211 13.919 13.261 7.709 19.471 8.419 20.181 9.129 20.891 15.329 14.681 18.979 18.321 12.769 24.531 13.479 25.241 14.179 25.941 20.389 19.731 25.449 24.801 26.159 24.091 26.859 23.381 21.799 18.321 28.009 12.121" style="fill:#d6daf2"/><g style="opacity:0.1"><path d="M62.7088,46.8113l-4.35-4.35-.71-.71-.71-.7-3.64-3.64-1.42-1.42-4.35-4.35a1.0145,1.0145,0,0,0-1.41,0l-4.94,4.94c.13.48.25.98.35,1.47l-.16-.16a.9824.9824,0,0,1,.22.43c0,.02.01.04.01.06.21,1.01.37,2.03.5,3.06a38.9755,38.9755,0,0,1,.28,4.06c.01.24.01.49.01.73,0,.72-.02,1.43-.06,2.14a37.4075,37.4075,0,0,1-.62,5.1l1.41,1.41.7.7.71.71,4.35,4.35a1.0018,1.0018,0,0,0,1.41,0l5.51-5.5.7-.71.71-.7,5.5-5.51A.9959.9959,0,0,0,62.7088,46.8113Z"/><path d="M44.7788,28.8813l-.8726-.8726,2.4353-4.8707a1,1,0,0,0-.1875-1.1543l-1.3618-1.3618,2.9136-2.9136a1,1,0,1,0-1.4141-1.4141l-2.9135,2.9136L42.0163,17.846a1,1,0,0,0-1.1543-.1875l-4.8706,2.4354-.8726-.8727a.9959.9959,0,0,0-1.41,0l-1.14,1.14a38.8661,38.8661,0,0,1,8.02,14.12l4.19-4.19A.9959.9959,0,0,0,44.7788,28.8813Z"/><path d="M32.3587,16.4712l-4.35-4.35-.71-.71-.7-.71-3.65-3.64-.7-.71-.71-.71-4.35-4.35a.9959.9959,0,0,0-1.41,0l-5.5,5.51-.71.7-.21.21c.76.12,1.5.25,2.24.41a39.7777,39.7777,0,0,1,5.76,1.7c.67.27,1.34.54,2,.84a36.5454,36.5454,0,0,1,4.74,2.54c.58.35,1.14.73,1.7,1.12a39.7816,39.7816,0,0,1,5.47,4.65l1.09-1.09a.9993.9993,0,0,0,.3-.71A.9765.9765,0,0,0,32.3587,16.4712Z"/></g></g></svg>